<svg xmlns="http://www.w3.org/2000/svg" viewBox="0 0 28 20" role="img" aria-labelledby="title">
  <title>United States flag</title>
  <rect width="28" height="20" rx="2" fill="#fff"/>
  <g fill="#b22234">
    <rect width="28" height="1.54" y="0"/>
    <rect width="28" height="1.54" y="3.08"/>
    <rect width="28" height="1.54" y="6.16"/>
    <rect width="28" height="1.54" y="9.24"/>
    <rect width="28" height="1.54" y="12.32"/>
    <rect width="28" height="1.54" y="15.4"/>
    <rect width="28" height="1.54" y="18.46"/>
  </g>
  <rect width="12" height="10.78" fill="#3c3b6e"/>
  <g fill="#fff">
    <circle cx="1.5" cy="1.5" r=".45"/>
    <circle cx="4" cy="1.5" r=".45"/>
    <circle cx="6.5" cy="1.5" r=".45"/>
    <circle cx="9" cy="1.5" r=".45"/>
    <circle cx="11" cy="1.5" r=".45"/>
    <circle cx="2.75" cy="3.1" r=".45"/>
    <circle cx="5.25" cy="3.1" r=".45"/>
    <circle cx="7.75" cy="3.1" r=".45"/>
    <circle cx="10.25" cy="3.1" r=".45"/>
    <circle cx="1.5" cy="4.7" r=".45"/>
    <circle cx="4" cy="4.7" r=".45"/>
    <circle cx="6.5" cy="4.7" r=".45"/>
    <circle cx="9" cy="4.7" r=".45"/>
    <circle cx="11" cy="4.7" r=".45"/>
    <circle cx="2.75" cy="6.3" r=".45"/>
    <circle cx="5.25" cy="6.3" r=".45"/>
    <circle cx="7.75" cy="6.3" r=".45"/>
    <circle cx="10.25" cy="6.3" r=".45"/>
    <circle cx="1.5" cy="7.9" r=".45"/>
    <circle cx="4" cy="7.9" r=".45"/>
    <circle cx="6.5" cy="7.9" r=".45"/>
    <circle cx="9" cy="7.9" r=".45"/>
    <circle cx="11" cy="7.9" r=".45"/>
  </g>
</svg>
